<svg xmlns="http://www.w3.org/2000/svg" width="16" height="16" viewBox="0 0 16 16"><defs><style>.a{fill:#001f82;}.b,.d{fill:none;}.b{stroke:#fd49c6;stroke-linecap:round;stroke-linejoin:round;opacity:0;}.c{stroke:none;}</style></defs><g transform="translate(-1016 -64)"><g transform="translate(1018.657 65.892)"><g transform="translate(0)"><path class="a" d="M10.7,7.828a.44.44,0,0,0,.435-.445V2.668A1.762,1.762,0,0,0,9.4.889H8.833V.445a.435.435,0,1,0-.87,0V.889H5.983V.445a.435.435,0,1,0-.87,0V.889H3.154V.445a.435.435,0,1,0-.87,0V.889H1.74A1.762,1.762,0,0,0,0,2.668V9.607a1.762,1.762,0,0,0,1.74,1.779H9.4a1.762,1.762,0,0,0,1.74-1.779.435.435,0,1,0-.87,0,.881.881,0,0,1-.87.889H1.74a.881.881,0,0,1-.87-.889V2.668a.881.881,0,0,1,.87-.889h.544v.445a.435.435,0,1,0,.87,0V1.779H5.112v.445a.435.435,0,1,0,.87,0V1.779h1.98v.445a.435.435,0,1,0,.87,0V1.779H9.4a.881.881,0,0,1,.87.889V7.383A.44.44,0,0,0,10.7,7.828Z" transform="translate(0)"/><path class="a" d="M136.77,201.184l-2.192,3.062a.254.254,0,0,1-.366.019l-1.419-1.363a.445.445,0,0,0-.616.642l1.421,1.364a1.147,1.147,0,0,0,.789.315l.075,0a1.147,1.147,0,0,0,.815-.425l.015-.02,2.2-3.075a.445.445,0,1,0-.723-.518Z" transform="translate(-129.228 -196.529)"/></g></g><g class="b" transform="translate(1016 64)"><rect class="c" width="16" height="16"/><rect class="d" x="0.5" y="0.5" width="15" height="15"/></g></g></svg>