<svg xmlns="http://www.w3.org/2000/svg" width="22.5" height="22.525" viewBox="0 0 22.5 22.525"><defs><style>.a{fill:none;stroke:#fff;stroke-miterlimit:10;stroke-width:1.5px;}</style></defs><g transform="translate(-497.248 -129.218)"><path class="a" d="M2,0H6.556a2,2,0,0,1,2,2V8.581a0,0,0,0,1,0,0H2a2,2,0,0,1-2-2V2A2,2,0,0,1,2,0Z" transform="translate(497.998 129.968)"/><path class="a" d="M2,0H6.556a2,2,0,0,1,2,2V6.581a2,2,0,0,1-2,2H0a0,0,0,0,1,0,0V2A2,2,0,0,1,2,0Z" transform="translate(510.442 129.968)"/><path class="a" d="M2,0H8.556a0,0,0,0,1,0,0V6.556a2,2,0,0,1-2,2H2a2,2,0,0,1-2-2V2A2,2,0,0,1,2,0Z" transform="translate(497.998 142.437)"/><path class="a" d="M0,0H6.556a2,2,0,0,1,2,2V6.556a2,2,0,0,1-2,2H2a2,2,0,0,1-2-2V0A0,0,0,0,1,0,0Z" transform="translate(510.442 142.437)"/></g></svg>