<svg xmlns="http://www.w3.org/2000/svg" width="16" height="16" viewBox="0 0 16 16"><defs><style>.a{fill:#001f82;}.b,.d{fill:none;}.b{stroke:#fd49c6;stroke-linecap:round;stroke-linejoin:round;opacity:0;}.c{stroke:none;}</style></defs><g transform="translate(-1292 -19)"><path class="a" d="M8.4,3A5.405,5.405,0,1,0,13.81,8.405,5.4,5.4,0,0,0,8.4,3Zm3.746,3.243H10.551a8.458,8.458,0,0,0-.746-1.924A4.34,4.34,0,0,1,12.145,6.243ZM8.405,4.1a7.614,7.614,0,0,1,1.032,2.14H7.373A7.614,7.614,0,0,1,8.405,4.1ZM4.222,9.486a4.228,4.228,0,0,1,0-2.162H6.048a8.927,8.927,0,0,0-.076,1.081,8.927,8.927,0,0,0,.076,1.081Zm.443,1.081H6.259a8.459,8.459,0,0,0,.746,1.924A4.317,4.317,0,0,1,4.665,10.567ZM6.259,6.243H4.665a4.317,4.317,0,0,1,2.34-1.924A8.459,8.459,0,0,0,6.259,6.243Zm2.146,6.465a7.614,7.614,0,0,1-1.032-2.14H9.437A7.614,7.614,0,0,1,8.405,12.708ZM9.67,9.486H7.14a7.952,7.952,0,0,1-.086-1.081A7.883,7.883,0,0,1,7.14,7.324H9.67a7.883,7.883,0,0,1,.086,1.081A7.952,7.952,0,0,1,9.67,9.486Zm.135,3.005a8.459,8.459,0,0,0,.746-1.924h1.595a4.34,4.34,0,0,1-2.34,1.924Zm.957-3.005a8.927,8.927,0,0,0,.076-1.081,8.927,8.927,0,0,0-.076-1.081h1.827a4.228,4.228,0,0,1,0,2.162Z" transform="translate(1291.823 18.824)"/><g class="b" transform="translate(1292 19)"><rect class="c" width="16" height="16"/><rect class="d" x="0.5" y="0.5" width="15" height="15"/></g></g></svg>