<svg xmlns="http://www.w3.org/2000/svg" width="12.25" height="12.25" viewBox="0 0 12.25 12.25">
  <g id="_7099600_caution_attention_exclamation_warning_circle_icon" data-name="7099600_caution_attention_exclamation_warning_circle_icon" transform="translate(-0.435 -0.435)">
    <path id="Path_604" data-name="Path 604" d="M6.56,12.56a6,6,0,1,1,6-6A6,6,0,0,1,6.56,12.56Zm0-11.187A5.187,5.187,0,1,0,11.747,6.56,5.187,5.187,0,0,0,6.56,1.373Z" transform="translate(0 0)" fill="#eb0000" stroke="#eb0000" stroke-width="0.25"/>
    <circle id="Ellipse_14" data-name="Ellipse 14" cx="0.692" cy="0.692" r="0.692" transform="translate(5.868 8.188)" fill="#eb0000"/>
    <path id="Path_605" data-name="Path 605" d="M17.942,14.152h0a.442.442,0,0,1-.442-.422l-.157-3.275a.609.609,0,0,1,.611-.635h0a.609.609,0,0,1,.608.638l-.18,3.274A.442.442,0,0,1,17.942,14.152Z" transform="translate(-11.394 -6.434)" fill="#eb0000"/>
  </g>
</svg>
