<svg xmlns="http://www.w3.org/2000/svg" width="16" height="16" viewBox="0 0 16 16"><defs><style>.a{fill:#001f82;stroke:#001f82;stroke-width:0.5px;}.b,.d{fill:none;}.b{stroke:#fd49c6;stroke-linecap:round;stroke-linejoin:round;opacity:0;}.c{stroke:none;}</style></defs><g transform="translate(-861 -19)"><g transform="translate(864.143 21.604)"><path class="a" d="M7.342,28.659h-.02a.22.22,0,0,1-.2-.238L7.6,23.083a.22.22,0,0,1,.22-.2H9.461a.22.22,0,0,1,.22.2l.405,3.907a.22.22,0,1,1-.437.045l-.384-3.71H8.019L7.56,28.459a.22.22,0,0,1-.219.2Z" transform="translate(-6.51 -22.883)"/><path class="a" d="M4.558,44.525a.22.22,0,0,1-.22-.22V39.637a.22.22,0,0,1,.111-.191l4.637-2.628a.22.22,0,0,1,.328.191V39.26l4.309-2.442a.22.22,0,0,1,.328.191v7.3a.325.325,0,0,1-.328.22C10.5,44.517,4.558,44.525,4.558,44.525Zm.22-.439h8.835c0-5.013,0-4.37,0-6.7L9.3,39.828a.22.22,0,0,1-.328-.191V37.386l-4.2,2.379Z" transform="translate(-4.338 -33.734)"/></g><g class="b" transform="translate(861 19)"><rect class="c" width="16" height="16"/><rect class="d" x="0.5" y="0.5" width="15" height="15"/></g></g></svg>