<svg xmlns="http://www.w3.org/2000/svg" width="26.5" height="26.5" viewBox="0 0 26.5 26.5">
  <path id="Path_1234" data-name="Path 1234" d="M518.5,376.167v-3.333l-2.706-.361a9.951,9.951,0,0,0-1.438-3.459l1.662-2.174-2.357-2.357-2.174,1.662a9.952,9.952,0,0,0-3.46-1.438l-.36-2.706h-3.333l-.361,2.706a9.952,9.952,0,0,0-3.46,1.438l-2.173-1.662-2.357,2.357,1.662,2.174a9.922,9.922,0,0,0-1.438,3.459l-2.706.361v3.333l2.706.361a9.879,9.879,0,0,0,1.233,3.111l2.94-2.94a5.969,5.969,0,0,1-.428-2.2,6.037,6.037,0,0,1,8-5.72l-3.635,3.635.472,2.892,3.226.807,3.667-3.667a6.023,6.023,0,0,1-7.882,7.675l-2.941,2.941a9.9,9.9,0,0,0,3.112,1.232l.361,2.706h3.333l.36-2.706a9.952,9.952,0,0,0,3.46-1.438l2.174,1.662,2.357-2.357-1.662-2.174a9.951,9.951,0,0,0,1.438-3.459Z" transform="translate(-492.748 -361.25)" fill="none" stroke="#fff" stroke-linejoin="round" stroke-width="1.5"/>
</svg>
