<svg xmlns="http://www.w3.org/2000/svg" width="16" height="16" viewBox="0 0 16 16"><defs><style>.a,.d{fill:none;}.a{stroke:#fd49c6;stroke-linecap:round;stroke-linejoin:round;opacity:0;}.b{fill:#001f82;}.c{stroke:none;}</style></defs><g transform="translate(-1168 -64)"><g class="a" transform="translate(1168 64)"><rect class="c" width="16" height="16"/><rect class="d" x="0.5" y="0.5" width="15" height="15"/></g><path class="b" d="M2.134,7.674v-4.8a1.507,1.507,0,1,0-1.256,0v4.8a1.506,1.506,0,1,0,1.256,0ZM1.507.637a.869.869,0,1,1-.869.869A.869.869,0,0,1,1.507.637Zm0,9.272a.869.869,0,1,1,.869-.869.869.869,0,0,1-.869.869Z" transform="translate(1170.727 72) rotate(-90)"/><path class="b" d="M2.134,7.674v-4.8a1.507,1.507,0,1,0-1.256,0v4.8a1.506,1.506,0,1,0,1.256,0ZM1.507.637a.869.869,0,1,1-.869.869A.869.869,0,0,1,1.507.637Zm0,9.272a.869.869,0,1,1,.869-.869.869.869,0,0,1-.869.869Z" transform="translate(1170.727 75.8) rotate(-90)"/></g></svg>