<svg xmlns="http://www.w3.org/2000/svg" xmlns:xlink="http://www.w3.org/1999/xlink" width="112.878" height="35.292" viewBox="0 0 112.878 35.292">
  <defs>
    <clipPath id="clip-path">
      <rect id="Rectangle_3758" data-name="Rectangle 3758" width="25.471" height="24.44" transform="translate(334.285 369.009) rotate(-45)" fill="none"/>
    </clipPath>
    <clipPath id="clip-path-2">
      <rect id="Rectangle_3757" data-name="Rectangle 3757" width="19.368" height="19.368" transform="translate(351.947 349.26)" fill="none"/>
    </clipPath>
    <clipPath id="clip-path-3">
      <path id="Path_1169" data-name="Path 1169" d="M368.337,369.366l-16.6,16.6-17.128-17.128,16.6-16.6v17.128Z" fill="none"/>
    </clipPath>
  </defs>
  <g id="Group_6219" data-name="Group 6219" transform="translate(-284.193 -350.999)">
    <path id="Path_1168" data-name="Path 1168" d="M396.92,367.621a1.572,1.572,0,0,0-1.415-.894H395.5a1.577,1.577,0,0,0-1.239.608h-2.672l-1.479,3.933-4.282-11.387-2.8,7.454H378.6v.013h-.5l-8.2-11.763-4.651,11.763H344.7l-3.785-8.223-4.763,6.933H326.1l-3.808-5.638-6.261,11.08-6.977-11.314-3.208,7.162h-2.974v-.012h-5.958l-1.479,3.928-4.282-11.388-2.8,7.455H287a1.566,1.566,0,1,0-1.741,2.439v.088h.5A1.573,1.573,0,0,0,287,369.25h2.678l1.478-3.933,4.282,11.387,2.8-7.454h1.99v.1h6.913l2.193-4.9,6.771,10.981,6.338-11.215,2.593,3.84H337.2l3.365-4.9,2.849,6.189h23.193l3.782-9.562,6.665,9.562h5.079v-.1h2.208l1.482-3.929L390.11,376.7l2.8-7.454h1.351a1.566,1.566,0,0,0,2.655-1.629Z" fill="#ff9e00"/>
    <g id="Group_6212" data-name="Group 6212">
      <g id="Group_6211" data-name="Group 6211" clip-path="url(#clip-path)">
        <g id="Unilever-01">
          <circle id="Ellipse_12" data-name="Ellipse 12" cx="2.07" cy="2.07" r="2.07" transform="translate(349.899 366.548)" fill="#1f36c7"/>
          <g id="Group_6208" data-name="Group 6208">
            <g id="Group_6207" data-name="Group 6207" clip-path="url(#clip-path-2)">
              <g id="Group_2987" data-name="Group 2987">
                <path id="Path_574" data-name="Path 574" d="M353.4,358.8l-.417-.05a9.889,9.889,0,0,0-7.033,1.983,4.513,4.513,0,0,0,.424-3.064c-.016-.08-.037-.16-.058-.239l1.727-.465,1.458-.394,1.815-.49c.023.085.049.17.076.254a4.491,4.491,0,0,0,2.006,2.467Z" fill="#0fb2ff"/>
                <path id="Path_575" data-name="Path 575" d="M363.816,371.79q-1.049-.6-2.13-1.153a9.675,9.675,0,0,0,.155-1,9.875,9.875,0,0,0-.049-2.429,4.469,4.469,0,0,0,2.463,1.988c.08.027.163.053.242.073l-.445,1.647Z" fill="#0fb2ff"/>
                <path id="Path_576" data-name="Path 576" d="M364.311,369.883A12.408,12.408,0,1,0,350.7,380.961h0A12.408,12.408,0,0,0,364.311,369.883Zm-13.286,7.936a9.248,9.248,0,0,1-8.259-10.142h0a9.91,9.91,0,0,1,10.576-8.585,9.249,9.249,0,0,1,8.257,10.144v0A9.911,9.911,0,0,1,351.025,377.819Z" fill="#ff9e00"/>
                <path id="Path_577" data-name="Path 577" d="M357.344,369.17A5.409,5.409,0,1,0,351.413,374h.005A5.41,5.41,0,0,0,357.344,369.17Zm-5.725,2.823a3.389,3.389,0,1,1,3.717-3.026h0A3.39,3.39,0,0,1,351.619,371.993Z" fill="#ff9e00"/>
                <rect id="Rectangle_35" data-name="Rectangle 35" width="19.368" height="19.368" transform="translate(351.947 349.26)" fill="none"/>
              </g>
            </g>
          </g>
          <g id="Group_6210" data-name="Group 6210">
            <g id="Group_6209" data-name="Group 6209" clip-path="url(#clip-path-3)">
              <g id="Group_2988" data-name="Group 2988">
                <path id="Path_578" data-name="Path 578" d="M357.321,373.965a7.576,7.576,0,0,1-12.373-8.215l-.5-.045a8.056,8.056,0,1,0,15.484,4.084q-.228-.107-.458-.207A7.546,7.546,0,0,1,357.321,373.965Z" fill="none"/>
                <path id="Path_579" data-name="Path 579" d="M357.659,362.915a8.057,8.057,0,0,0-13.21,2.791c.166.014.333.029.5.045a7.575,7.575,0,0,1,14.527,3.831q.225.105.458.207A8.04,8.04,0,0,0,357.659,362.915Z" fill="none"/>
                <path id="Path_580" data-name="Path 580" d="M358.776,375.43a4.5,4.5,0,0,1,4.365-1.162l.675-2.478.679-2.52a4.493,4.493,0,0,1-2.008-7.524l-3.648-3.648a4.5,4.5,0,0,1-7.528-2.021l-5,1.353a4.5,4.5,0,0,1-5.533,5.534l-.7,2.574-.656,2.428a4.515,4.515,0,0,1,2,7.545l3.644,3.645a4.51,4.51,0,0,1,7.54,1.992l5-1.352A4.507,4.507,0,0,1,358.776,375.43Zm-12.512-1.124a8.056,8.056,0,1,1,11.393,0h0A8.057,8.057,0,0,1,346.264,374.306Z" fill="#1f36c7"/>
                <path id="Path_581" data-name="Path 581" d="M359.475,369.582a7.574,7.574,0,1,0-2.156,4.384A7.574,7.574,0,0,0,359.475,369.582Zm-11.98,3.494a6.318,6.318,0,1,1,8.935,0,6.319,6.319,0,0,1-8.935,0Z" fill="#1f36c7"/>
              </g>
            </g>
          </g>
        </g>
      </g>
    </g>
    <g id="DF" transform="translate(0 1)" style="isolation: isolate">
      <g id="Group_6213" data-name="Group 6213" style="isolation: isolate">
        <path id="Path_1170" data-name="Path 1170" d="M313.559,357.492a9.3,9.3,0,0,1,3.8,3.69,11.044,11.044,0,0,1,1.35,5.535,11.445,11.445,0,0,1-1.35,5.625,9.469,9.469,0,0,1-3.81,3.795,11.468,11.468,0,0,1-5.61,1.35h-8.22v-21.3h8.22A11.764,11.764,0,0,1,313.559,357.492Zm-1.425,14.2a6.588,6.588,0,0,0,1.8-4.92,6.474,6.474,0,0,0-1.785-4.86,6.685,6.685,0,0,0-4.875-1.74h-3v13.29h2.97A6.671,6.671,0,0,0,312.134,371.7Z" fill="#1f36c7"/>
        <path id="Path_1171" data-name="Path 1171" d="M335.474,356.187v3.99h-8.4v4.86h7.98V369h-7.98v8.49h-4.56v-21.3Z" fill="#1f36c7"/>
      </g>
    </g>
    <g id="Group_6217" data-name="Group 6217">
      <g id="Group_6216" data-name="Group 6216" clip-path="url(#clip-path)">
        <g id="Unilever-01-2">
          <g id="Group_6215" data-name="Group 6215">
            <g id="Group_6214" data-name="Group 6214" clip-path="url(#clip-path-2)">
              <g id="Group_2981" data-name="Group 2981">
                <path id="Path_566" data-name="Path 566" d="M360.775,369.521a8.853,8.853,0,1,0-9.71,7.9,8.853,8.853,0,0,0,9.71-7.9Zm-9.48,5.661a6.6,6.6,0,1,1,7.238-5.894h0A6.6,6.6,0,0,1,351.3,375.182Z" fill="#1f36c7"/>
              </g>
            </g>
          </g>
          <g id="Group_3032" data-name="Group 3032">
            <path id="Path_568" data-name="Path 568" d="M357.321,373.965a7.576,7.576,0,0,1-12.373-8.215l-.5-.045a8.056,8.056,0,1,0,15.484,4.084q-.228-.107-.458-.207A7.546,7.546,0,0,1,357.321,373.965Z" fill="none"/>
            <path id="Path_569" data-name="Path 569" d="M357.659,362.915a8.057,8.057,0,0,0-13.21,2.791c.166.014.333.029.5.045a7.575,7.575,0,0,1,14.527,3.831q.225.105.458.207A8.04,8.04,0,0,0,357.659,362.915Z" fill="none"/>
          </g>
        </g>
      </g>
    </g>
    <g id="S" transform="translate(0 1)" style="isolation: isolate">
      <g id="Group_6218" data-name="Group 6218" style="isolation: isolate">
        <path id="Path_1172" data-name="Path 1172" d="M366.746,375.735l.75-4.17a12.745,12.745,0,0,0,6.329,1.71q3,0,3-2.1a1.741,1.741,0,0,0-.389-1.155,3.481,3.481,0,0,0-1.17-.84q-.781-.375-2.461-1.035a11.081,11.081,0,0,1-4.184-2.521,5.509,5.509,0,0,1-1.395-3.96,5.574,5.574,0,0,1,2.04-4.59,8.28,8.28,0,0,1,5.369-1.649,14.864,14.864,0,0,1,3.3.375,13.085,13.085,0,0,1,2.819.944l-.569,3.99a15.342,15.342,0,0,0-2.716-.945,11.2,11.2,0,0,0-2.715-.4,3.551,3.551,0,0,0-2.069.51,1.661,1.661,0,0,0-.721,1.439,1.765,1.765,0,0,0,.931,1.485,17.663,17.663,0,0,0,3.27,1.486,16.324,16.324,0,0,1,2.924,1.38,5.3,5.3,0,0,1,1.83,1.9,5.884,5.884,0,0,1,.675,2.954,6.263,6.263,0,0,1-2.054,4.995,8.246,8.246,0,0,1-5.6,1.785A15.169,15.169,0,0,1,366.746,375.735Z" fill="#1f36c7"/>
      </g>
    </g>
  </g>
</svg>
