<svg xmlns="http://www.w3.org/2000/svg" width="23.147" height="30.912" viewBox="0 0 23.147 30.912">
  <g id="Group_229" data-name="Group 229" transform="translate(-28.25 -459.25)">
    <g id="Icon-custom-report" transform="translate(29 460)">
      <line id="Line_172" data-name="Line 172" x2="8.919" transform="translate(4.687 4.462)" fill="none" stroke="#fff" stroke-linecap="square" stroke-linejoin="round" stroke-width="1.5"/>
      <line id="Line_173" data-name="Line 173" x2="1.851" transform="translate(4.747 13.467)" fill="none" stroke="#fff" stroke-linecap="square" stroke-linejoin="round" stroke-width="1.5"/>
      <line id="Line_174" data-name="Line 174" x2="8.919" transform="translate(4.687 9.373)" fill="none" stroke="#fff" stroke-linecap="square" stroke-linejoin="round" stroke-width="1.5"/>
      <path id="Path_659" data-name="Path 659" d="M504.576,325.279h-2.853a3.163,3.163,0,0,1-3.224-3.1V304.1a3.163,3.163,0,0,1,3.223-3.1h12.5a3.165,3.165,0,0,1,3.225,3.1v11.621" transform="translate(-498.499 -301)" fill="none" stroke="#fff" stroke-linecap="round" stroke-linejoin="round" stroke-width="1.5"/>
    </g>
    <g id="search-cross-svgrepo-com" transform="translate(33.695 472.169)">
      <path id="Path_220" data-name="Path 220" d="M5.5,10.167a5.173,5.173,0,1,1,1.512,3.661A5.173,5.173,0,0,1,5.5,10.167Z" fill="none" stroke="#fff" stroke-linecap="round" stroke-linejoin="round" stroke-width="1.5" fill-rule="evenodd"/>
      <path id="Path_221" data-name="Path 221" d="M16.062,16.568,18.8,19.294" transform="translate(-2.156 -2.362)" fill="none" stroke="#fff" stroke-linecap="round" stroke-linejoin="round" stroke-width="1.5"/>
    </g>
  </g>
</svg>
