<svg xmlns="http://www.w3.org/2000/svg" width="24.5" height="24.5" viewBox="0 0 24.5 24.5">
  <g id="Group_2519" data-name="Group 2519" transform="translate(-2031.625 4742.75)">
    <path id="Path_664" data-name="Path 664" d="M505.5,88.239l4.687-2.871,4.687,2.871,4.687-2.871" transform="translate(1530.791 -4822.02)" fill="none" stroke="#fff" stroke-linecap="round" stroke-linejoin="round" stroke-width="1"/>
    <ellipse id="Ellipse_64" data-name="Ellipse 64" cx="1.234" cy="1.234" rx="1.234" ry="1.234" transform="translate(2034.242 -4733.957)" fill="none" stroke="#fff" stroke-linecap="round" stroke-miterlimit="10" stroke-width="1"/>
    <ellipse id="Ellipse_111" data-name="Ellipse 111" cx="1.234" cy="1.234" rx="1.234" ry="1.234" transform="translate(2039.585 -4739.122)" fill="none" stroke="#fff" stroke-linecap="round" stroke-miterlimit="10" stroke-width="1"/>
    <ellipse id="Ellipse_112" data-name="Ellipse 112" cx="1.234" cy="1.234" rx="1.234" ry="1.234" transform="translate(2044.466 -4733.863)" fill="none" stroke="#fff" stroke-linecap="round" stroke-miterlimit="10" stroke-width="1"/>
    <ellipse id="Ellipse_113" data-name="Ellipse 113" cx="1.234" cy="1.234" rx="1.234" ry="1.234" transform="translate(2050.035 -4739.122)" fill="none" stroke="#fff" stroke-linecap="round" stroke-miterlimit="10" stroke-width="1"/>
    <rect id="Rectangle_360" data-name="Rectangle 360" width="23" height="23" rx="4" transform="translate(2032.375 -4742)" fill="none" stroke="#fff" stroke-linecap="round" stroke-linejoin="round" stroke-width="1.5"/>
    <g id="Rectangle_459" data-name="Rectangle 459" transform="translate(2035.257 -4727.193)" fill="none" stroke="#fff" stroke-width="1">
      <rect width="3.116" height="4.674" stroke="none"/>
      <rect x="0.5" y="0.5" width="2.116" height="3.674" fill="none"/>
    </g>
    <g id="Rectangle_462" data-name="Rectangle 462" transform="translate(2045.257 -4727.793)" fill="none" stroke="#fff" stroke-width="1">
      <rect width="3.116" height="5.529" stroke="none"/>
      <rect x="0.5" y="0.5" width="2.116" height="4.529" fill="none"/>
    </g>
    <g id="Rectangle_460" data-name="Rectangle 460" transform="translate(2040.257 -4728.793)" fill="none" stroke="#fff" stroke-width="1">
      <rect width="3.116" height="6.38" stroke="none"/>
      <rect x="0.5" y="0.5" width="2.116" height="5.38" fill="none"/>
    </g>
    <g id="Rectangle_461" data-name="Rectangle 461" transform="translate(2050.257 -4728.793)" fill="none" stroke="#fff" stroke-width="1">
      <rect width="3.116" height="6.38" stroke="none"/>
      <rect x="0.5" y="0.5" width="2.116" height="5.38" fill="none"/>
    </g>
  </g>
</svg>
