<svg xmlns="http://www.w3.org/2000/svg" width="26.02" height="28.787" viewBox="0 0 26.02 28.787"><defs><style>.a{fill:#1f36c7;}</style></defs><path class="a" d="M1.964,28.785C.65,28.757.068,27.9.007,26.606a5.96,5.96,0,0,1,.269-2.09c.134-.463.254-.627.671-.717.329-.06.3.283.225.687A7.941,7.941,0,0,0,.994,26.83c.059,1.074.552,1.493,1.089,1.493.808.016,1.163-.655,1.314-1.624a2.794,2.794,0,0,0-.04-1.39,4.631,4.631,0,0,1-.2-.666.781.781,0,0,1,.426-.9c.269-.072.374.06.477.374a6.442,6.442,0,0,1,.1,2C4.1,27.325,3.5,28.787,2.01,28.787ZM22.44,27.244a2.217,2.217,0,0,1-1.9,1.478,1.066,1.066,0,0,1-1.132-1.209,1.59,1.59,0,0,1,1.326-1.746.93.93,0,0,1,.852.9c0,1-1.315,1.044-1.315,1.239s.343.269.537.269c.837,0,1.4-1.128,1.583-1.9.033-.133.149-.418.381-.414.269,0,.15,1.688.524,1.688.228,0,.526-2.1,1.929-2.1.477,0,.79.265.79.609a.434.434,0,0,1-.434.449c-.537,0-.4-.406-.627-.406-.6,0-1.031,1.149-1.478,2.151-.179.4-.284.477-.434.477-.369,0-.458-1.031-.608-1.478Zm-1.9-.88c-.567,0-.522.924-.434,1.144a.958.958,0,0,0,.763-.549c.077-.225-.015-.6-.329-.6Zm-6.939,2a1.715,1.715,0,0,1-1,.344c-.551,0-.791-.567-1.012-.567-.269,0-.567.583-1.463.583-.717,0-.837-.956-1.09-.956-.224,0-.567.956-.94.956-.629,0-.762-1.657-1.32-1.657-.434,0-1.8,1.683-2.172,1.644a.22.22,0,0,1-.2-.276c.021-.2.2-.76.271-1.012.121-.454.231-.951.293-1.111a.4.4,0,0,1,.361-.262c.068.007.087.132.108.235.072.369.181.746.3.746.209,0,.9-1.329,1.3-1.329.494,0,.552,2.091,1.224,2.091.225,0,.389-.269.538-.6.015-.554.165-1.342.609-1.342.314,0,.463.7.239,1.313a.8.8,0,0,0,.8.906,1.053,1.053,0,0,0,.914-.557,5.6,5.6,0,0,1-.314-1.446c-.088-1.446.469-2.809,1.079-2.843.447-.027.805.4.846,1.084a5.228,5.228,0,0,1-.791,3.206,1.068,1.068,0,0,0,.879.677.578.578,0,0,0,.374-.135,1.466,1.466,0,0,1-.061-.434c0-1.046.672-1.929,1.255-1.929.462,0,.731.609.731,1.012,0,.477-.406.867-1,1.24a.716.716,0,0,0,.463.179c.852,0,1.3-1.03,1.625-1.971.06-.18.166-.434.374-.434.361,0,.506,2.358,1.1,2.358.255,0,.463-.523.463-.925,0-.3-.1-.328-.1-.762,0-.477.254-.88.6-.88.209,0,.284.2.284.461,0,.956-.687,2.732-1.7,2.732-.763,0-.7-1.314-.971-1.314-.3,0-.718,1.329-2.2,1.329a.949.949,0,0,1-.7-.353Zm.356-1.33a.927.927,0,0,0,.194.629.77.77,0,0,0,.551-.791h0c0-.253-.134-.462-.3-.462-.134,0-.446.146-.446.623Zm-1.819-2.924c-.3.018-.434.953-.374,1.937.038.64.135.739.223.733a3.314,3.314,0,0,0,.5-2.079c-.025-.4-.117-.592-.322-.592Zm-2.613.427a.438.438,0,0,1-.449-.449.593.593,0,0,1,.522-.671.439.439,0,0,1,.463.406h0a.627.627,0,0,1-.527.711Zm-.491-4.15c-.389-.173-.982.166-1.814-.76a1.963,1.963,0,0,0,.381.033c.728,0,1.117-.356,1.117-.927a2.04,2.04,0,0,0-.017-.221,1.572,1.572,0,0,1,.848,1.141c.016.08.34.15.546.15a.644.644,0,0,0,.7-.586,1.777,1.777,0,0,0,1.726-1.355,1.879,1.879,0,0,1,.823.578,1.429,1.429,0,0,1,.475-.072,3.025,3.025,0,0,1,.88.15c.017-.1.031-.231.19-.231.238,0,.175.262.254.412.04.08.239.127.239.285a.2.2,0,0,1-.2.2.342.342,0,0,1-.1-.017c-.158.056-.166,1.2-.832,1.2a1.336,1.336,0,0,1-1.141-.914.339.339,0,0,0-.285-.246c-.126,0-.2.025-.348.191a2.755,2.755,0,0,1-2.019.867c-.269,0-.484-.023-.538-.023-.033,0-.033.007-.033.015,0,.056.269.27.856.27,1.394,0,1.735-.785,1.957-.785a.184.184,0,0,1,.181.127,1.54,1.54,0,0,0,1.47.94,3.753,3.753,0,0,0,.479-.032c.119,0,.127.072.127.119,0,.175-.389.389-1.078.389a.7.7,0,0,1-.723-.452,3.129,3.129,0,0,1-1.59.484,3.894,3.894,0,0,1-2.54-.929Zm4.708-1.156h0A.317.317,0,1,0,13.838,19a.317.317,0,0,0-.091.225Zm1.649.825a1.786,1.786,0,0,1,.434-1.084c.087-.1.175-.181.254-.181a1.961,1.961,0,0,0,.682.134,2.335,2.335,0,0,0,1.489-.514h.005c.183,0,.434.176.434.6,0,.752-1.109,1.678-2.591,1.678a.65.65,0,0,1-.705-.637Zm1.36-.522a1.85,1.85,0,0,1-.112.578,1.535,1.535,0,0,0,.867-.253.692.692,0,0,0,.361-.586c0-.145-.048-.166-.087-.166h0a1.79,1.79,0,0,1-.943.246h-.1a1.513,1.513,0,0,1,.017.181ZM4.637,17.3a1.156,1.156,0,0,1,.682-1.126,1.725,1.725,0,0,0,1.608,2.3c.637,0,.94-.325.94-.886a1.177,1.177,0,0,0-1.122-1.252c-.356,0-.6.206-.6.491a.776.776,0,0,0,.8.777c.269,0,.444-.111.444-.293a.182.182,0,0,0-.025-.095.437.437,0,0,1-.175.031c-.324,0-.586-.191-.586-.381a.233.233,0,0,1,.246-.244.876.876,0,0,1,.8.847.667.667,0,0,1-.7.682A1.312,1.312,0,0,1,5.6,16.841a.956.956,0,0,1,.991-.94,1.826,1.826,0,0,1,1.695,2.031A1.289,1.289,0,0,1,6.84,19.271,2.209,2.209,0,0,1,4.637,17.3Zm4.515.888c0-.048.031-.072.087-.072a4.1,4.1,0,0,0,.53.048c.867,0,.566-1.181,1.378-1.181a.583.583,0,0,1,.444.238.361.361,0,0,0,.087-.229c0-.135-.087-.239-.085-.366a.2.2,0,0,1,.2-.223c.151,0,.231.135.246.276a.23.23,0,0,1,.175-.078.252.252,0,0,1,.254.261.273.273,0,0,1-.112.217.239.239,0,0,1,.151.223.217.217,0,0,1-.223.221c-.119,0-.19-.145-.317-.145a.231.231,0,0,0-.181.08.838.838,0,0,1,.072.324c0,.619-.783,1.117-1.6,1.117s-1.109-.507-1.109-.71Zm9.886.086c0-.056.023-.127.181-.19a1.855,1.855,0,0,0,1.195-1.356.14.14,0,0,0-.145-.158c-.134,0-.71,1.314-1.352,1.314-.445,0-.9-.406-.9-.593,0-.318,1.284-.9,1.284-1.347,0-.166-.08-.178-.145-.178-.166,0-1.084,1.229-1.68,1.229-.145,0-.262-.27-.262-.475,0-.111.072-.19.326-.246,1.362-.305,1.06-1.331,2.224-1.331a1.33,1.33,0,0,1,1.355,1.422,3.566,3.566,0,0,1-1.711,2.345c-.178,0-.376-.26-.376-.435Zm.752-2.693a.5.5,0,0,0,.286.434.477.477,0,0,0,.228.064c.231,0,.413-.064.413-.254,0-.244-.361-.545-.7-.545v0c-.111,0-.23.089-.23.306Zm-2.8,3.007c-.429,0-.777-.155-.777-.305v-.361c0-.112.309-.372.888-.372.476,0,.823.134.823.361v.181a.289.289,0,0,1-.078.231,1.321,1.321,0,0,1-.8.267Zm-2.163-.647a2.236,2.236,0,0,1-2.273-2.282A2.335,2.335,0,0,1,14.9,13.342c.348,0,.643.118.643.269,0,.207-.516.08-.555.323.361.048.452.175.452.278,0,.173-.158.23-.309.23-.111,0-.238-.025-.372-.025a.6.6,0,0,0-.491.2c.1.017.254.087.254.246,0,.46-1.276.08-1.276,1.26a1.511,1.511,0,0,0,1.632,1.307c.506,0,.833-.166.833-.356,0-.151-.27-.048-.27-.175,0-.056.1-.16.1-.246,0-.038-.032-.111-.1-.111a3.154,3.154,0,0,1-.958.229c-.429,0-.848-.245-.848-.578,0-.072.032-.112.08-.112s.111.033.166.033.055-.033.055-.119,0-.333.15-.333a2.373,2.373,0,0,0,1.53.554,2.525,2.525,0,0,0,1.33-.3,2.058,2.058,0,0,1-2.058,2.024Zm-6.185-.659a1.761,1.761,0,0,1-.289-.863c-.066-.4-.382-.745-1.012-.9h0c-.506-.127-.578-.221-.578-.361,0-.223.309-.372.586-.372a1,1,0,0,1,.935.506c.241.356.28.95.406,1.061a.382.382,0,0,0,.239.072c.077,0,.148-.008.2-.008a1.084,1.084,0,0,1,.958.926c0,.262-.229.356-.515.356a1.373,1.373,0,0,1-.934-.413Zm.308-.389c0,.145.356.4.594.4.119,0,.158-.072.158-.127,0-.206-.356-.452-.554-.452H9.147a.192.192,0,0,0-.192.183Zm-6-2.186c0-1.354,1.188-2.147,1.188-2.709a.361.361,0,0,0-.145-.289c-.261-.223-.269-.406-.474-.406-.151,0-.333.348-.145.657a.51.51,0,0,1,.119.262c0,.221-.348.812-.594.812s-.434-.609-.434-1.59c0-.871.2-1.751.444-1.751.072,0,.095.048.095.112,0,.1-.031.3-.031.657,0,.382.087.413.158.413.269,0,.217-1.648.65-1.648.1,0,.134.1.134.231,0,.372-.181.914-.181,1.219,0,.15.04.2.111.2.191,0,.523-1.815.848-1.815.1,0,.15.1.15.2,0,.381-.484,1.473-.484,1.782,0,.048.017.087.056.087.2,0,.594-.855.723-1.282.072-.223.166-.341.254-.341s.15.087.15.269A6.716,6.716,0,0,1,4.8,11.882a5.3,5.3,0,0,0-.688,1.695.841.841,0,0,0,.348.7c-.506-.031-.71-.08-.9-.475-.85,1.681,1.558,1.516.734,3.012C4.139,16.552,2.951,16.272,2.951,14.7Zm5.734.072c0-.217.056-.452.191-.452.119,0,.158.095.253.19a1.654,1.654,0,0,0,1.307.452c.506,0,.88-.2.88-.421,0-.356-.737-.361-.737-.9a1.235,1.235,0,0,1,.263-.607.859.859,0,0,0,.595.76,1.012,1.012,0,0,1,.8,1.078,1.618,1.618,0,0,1-1.782,1.6,1.807,1.807,0,0,1-1.769-1.695Zm2.282.723c0,.1-.023.236-.023.3,0,.1.017.151.127.151a1.012,1.012,0,0,0,.736-.9c0-.111-.063-.158-.135-.158s-.134.132-.324.217h0c-.272.124-.381.1-.381.38Zm4.229.343a.348.348,0,0,1-.348-.356c0-.135.055-.262.055-.381a.315.315,0,0,0-.1-.236.69.69,0,0,1,.768.594.369.369,0,0,1-.369.379ZM5.059,15.4a.65.65,0,0,1-.262.079.517.517,0,0,1-.57-.444.533.533,0,0,1,.445-.578l.08-.011a.526.526,0,1,1,.99-.341A.506.506,0,0,1,6,13.992a.516.516,0,0,1,.554.464.526.526,0,0,1-.455.562.263.263,0,0,1-.067.009.578.578,0,0,1,.047.183.5.5,0,0,1-.458.56A.487.487,0,0,1,5.059,15.4Zm.312-.94a.3.3,0,1,0,.033,0ZM17.5,15.612a.473.473,0,0,1-.145-.345c0-.229.151-.434.151-.657a.473.473,0,0,0-.08-.254c.594.04.974.4.974.815a.547.547,0,0,1-.546.571h-.025A.473.473,0,0,1,17.5,15.612Zm-1.754-.67c0-.332.26-.682.26-1.021a.609.609,0,0,0-.15-.4,1.465,1.465,0,0,1,1.284,1.373.716.716,0,0,1-.7.776.669.669,0,0,1-.7-.721Zm.566-.6c-.005.072-.043.168-.043.233a.19.19,0,0,0,.19.2.217.217,0,0,0,.2-.238c0-.166-.15-.4-.293-.4-.064,0-.04.1-.056.2Zm3.975-.183a.525.525,0,0,1,.523-.554.8.8,0,0,1,.595.217.7.7,0,0,1-.217-.506.544.544,0,0,1,.542-.578c.4,0,.71.515.71,1.117a2.492,2.492,0,0,1-.837,1.807c0-1.063-1.316-.723-1.316-1.5Zm-1.247.027c-.111,0-.3.261-.389.261a.045.045,0,0,1-.04-.048c0-.181.293-.594.293-1,0-.19-.023-.6-.254-.6-.19,0-.406.3-.5.6-.055.175-.015.848-.145.848s-.087-.452-.246-.452c-.117,0-.371.217-.458.217-.015,0-.032-.008-.032-.025,0-.095.231-.406.231-.467,0-.119-.524-.134-.524-.229,0-.056.2-.1.4-.127.406-.072,1-.361,1-.776,0-.459-.445-.658-.737-.848-.15-.1-.317-.173-.317-.238s.191-.063.269-.063c.119,0,.236-.008.236-.1,0-.072-.017-.217-.017-.325,0-.079.008-.145.04-.145.119,0,.285.388.361.388.126,0,.305-.317.421-.317.038,0,.055.025.055.1,0,.289-.149.624-.149.909,0,.2.063.427.261.427.166,0,.309-.253.309-.53,0-.318-.056-.562-.056-.69,0-.056.025-.08.056-.08.119.008.23.332.356.332.145,0,.356-.261.443-.261.023,0,.031.031.031.04,0,.119-.183.381-.183.484,0,.086.46.1.46.181,0,.119-.481.119-.71.223s-.356.213-.356.372.158.19.381.19a3.156,3.156,0,0,0,1.021-.284.038.038,0,0,1,.04.04c0,.079-.27.34-.27.459,0,.135.491.289.484.373-.008.023-.04.031-.1.031-.087,0-.223-.025-.325-.025a.184.184,0,0,0-.145.04c-.055.064.017.484-.095.484s-.373-.934-.981-.934c-.087,0-.151.072-.151.19a1.191,1.191,0,0,0,.6.855c.133.087.354.175.354.223,0,.095-.506.008-.506.166s.064.356.064.484c0,.04-.008.086-.056.086-.089,0-.319-.433-.43-.433ZM8.793,13.12a1.352,1.352,0,0,1,.419-.974,1.135,1.135,0,0,0,.586.317c.145,0,.183-.063.183-.158,0-.289-1.161-.559-1.161-1.185h0c0-.506,1.2-.777,1.2-1.4A1.042,1.042,0,0,0,9.914,9.3a1.274,1.274,0,0,1,.728.935c0,.546-.57.8-.57,1.141,0,.4.609.46.609.95,0,.406-.578.871-.578,1.394a.791.791,0,0,0,.723.8,1.847,1.847,0,0,1-.406.056A1.615,1.615,0,0,1,8.793,13.12Zm-1.662,1.1a.593.593,0,0,1-.184-.416.4.4,0,0,1,.19-.361c.023,0,.032.015.031.072a.259.259,0,0,0,.269.254.264.264,0,0,0,.277-.269c0-.658-1.339-1.807-1.339-3.383a1.784,1.784,0,0,0-.159.728c0,.76.554,1.553.554,2.264a.543.543,0,0,1-.515.554.429.429,0,0,1-.452-.434c0-.112.043-.217.08-.217s.013.166.2.166.261-.135.261-.381c0-.657-.379-1.125-.379-1.807a1.455,1.455,0,0,1,.023-.317,1.394,1.394,0,0,0-.229.9v.812c0,.545-.276.8-.609.8a.434.434,0,0,1-.429-.464c0-.04.025-.181.072-.181.064,0,.112.166.293.166.348,0,.373-.34.373-1.021A2.723,2.723,0,0,1,6.835,9.329a1.868,1.868,0,0,0-.2.888c0,1.347,1.625,2.606,1.625,3.437a.7.7,0,0,1-.7.723H7.544a.593.593,0,0,1-.414-.16Zm8.423-1.383c0-.221.228-.442.228-.578,0-.04-.03-.1-.125-.1-.293,0-.373.776-1.41.863a.8.8,0,0,0,.305-.657c0-.166-.04-.305-.04-.484,0-.238.111-.357.269-.357.293,0,.434.412.627.412a.228.228,0,0,0,.217-.238c0-.6-1.156-.515-1.156-1.362a2.061,2.061,0,0,1,.3-.908c.087.673.991.333.991,1.148,0,.119-.033.293-.033.444,0,.175.017.325.15.325s.166-.095.166-.223-.031-.284-.031-.372a.3.3,0,0,1,.317-.34c.305,0,.531.3.983.3-.1.506-1.149.372-1.149.927,0,.277.277.34.46.34.166,0,.223-.025.223-.166,0-.08-.017-.166-.017-.221a.063.063,0,0,1,.064-.064c.175,0,1.029.65,1.029.848,0,.181-.9.361-1.164.361a.085.085,0,0,1-.1-.087c0-.056.135-.223.135-.317,0-.072-.119-.119-.434-.119-.15,0-.261.017-.261.135,0,.213.348.475.348.672,0,.16-.095.254-.348.254-.223,0-.547-.163-.547-.441Zm4.553-2.115c-.554-.443-1.523-.2-1.523-1.031,0-.221.145-.538.145-.8a.371.371,0,0,0-.063-.229c.76.285.491.8.96,1.315A4.169,4.169,0,0,1,21.19,12a1.446,1.446,0,0,0,.017-.213c0-1.173-1.552-2.321-1.687-2.8.9.1,1.06.325,1.489,1.513a5.313,5.313,0,0,1,.366,1.161,4.81,4.81,0,0,1,.545-1.1c-.26-.134-.95-.419-.95-.886a1.229,1.229,0,0,1,.823-.975c.063,0,.08.056.08.158,0,.285-.135.744-.135.99,0,.223.145.434.27.434a1.147,1.147,0,0,0,.506-.943,1.068,1.068,0,0,0-.966-1.094,4.616,4.616,0,0,1-1.513.348c-1.7,0-2.092-1.687-2.092-2.423,0-.032.008-.04.017-.04a1.209,1.209,0,0,0,.745.2c.278,0,.531-.072.935-.072.949,0,1.373.657,1.957,1.5a1.848,1.848,0,0,1,1.2,1.584c0,.888-.943,1.378-1.171,2.328.361-.038.578-.689.95-.689.19,0,.277.15.277.388a1.726,1.726,0,0,1-.578,1.2.513.513,0,0,0,.008-.119c0-.221-.087-.538-.341-.538-.4,0-.522.427-.743.784a3.758,3.758,0,0,0-1.093-1.974Zm.24-3.019c0,.1-.269.284-.269.434a.08.08,0,0,0,.072.087c.145,0,.332-.372.6-.372.1,0,.254.04.333.04a.084.084,0,0,0,.087-.066c0-.166-.421-.181-.46-.65-.008-.072-.032-.2-.119-.2-.145,0-.033.434-.191.434-.361,0-.482-.71-.617-.71-.031,0-.072.023-.072.119s.016.145.016.245-.025.175-.119.175c-.217,0-.406-.5-.587-.5a.072.072,0,0,0-.08.063c0,.1.158.269.158.356,0,.191-.515.087-.515.246,0,.072.072.1.166.1.168,0,.429-.072.564-.072.08,0,.2.015.2.118s-.285.254-.285.356a.08.08,0,0,0,.087.072c.217,0,.593-.372.862-.372.046,0,.166.027.166.1ZM8.123,12.2c-.051-.12-.434-.361-.457-.506a.182.182,0,0,0,.033-.132c0-.221-.348-.475-.348-.823a.168.168,0,0,0,.079-.15c0-.2-.2-.587-.2-.848.087,0,.135-.008.145-.135a1.27,1.27,0,0,1,.317-.871,1.5,1.5,0,0,0-.223-.015,1.706,1.706,0,0,0-1.489.895,1.553,1.553,0,0,1-.025-.261A1.052,1.052,0,0,1,6.491,8.4a.987.987,0,0,1,.419-.072,5.229,5.229,0,0,1,.867.111,1.446,1.446,0,0,0-1.023-.619.3.3,0,0,0-.324.19,1.43,1.43,0,0,1-.025-.269c0-.388.127-.609.46-.609.491,0,.911.586,1.164,1.132,0-.83.017-1.244.356-1.244.19,0,.546.341.64.685a.677.677,0,0,0-.119-.015c-.254,0-.4.253-.6.68a2.525,2.525,0,0,1,1.373-.562.669.669,0,0,1,.729.649.988.988,0,0,1-.181.506c-.064-.356-.356-.514-.867-.514a2.807,2.807,0,0,0-.914.158c.895.126,1.03.452,1.03.745,0,.5-.5.747-.833.914A2.024,2.024,0,0,0,8.7,9.814a1.165,1.165,0,0,0-.562-.975c-.072.325-.324.523-.324.776a.111.111,0,0,0,.111.127c0,.145-.064.549-.064.65,0,.213.05.254.151.277.063.181.065.487.108.65a.145.145,0,0,0,.153.116,1.156,1.156,0,0,0,.293.506.19.19,0,0,1,.072.127c0,.145-.217.3-.349.3C8.252,12.375,8.184,12.351,8.123,12.2ZM17.581,9.99a.3.3,0,1,1,.089.216.3.3,0,0,1-.089-.216Zm-.7.243a.547.547,0,1,1,.387-.16.547.547,0,0,1-.387.16Zm-1.1-.739a.317.317,0,1,1,.121.024.317.317,0,0,1-.121-.024Zm1.92-.137a.373.373,0,1,1,.145.029.373.373,0,0,1-.145-.029Zm-15.4-.973a.83.83,0,0,0,.745.471,3.469,3.469,0,0,0,.76-.119,1.771,1.771,0,0,1-1,.531C2.5,9.265,2.313,8.982,2.313,8.384Zm13.28.819Zm-1.065-.53a.452.452,0,1,1,.452.451.452.452,0,0,1-.452-.451Zm2.1-.1a.317.317,0,1,1,.317.315h0a.317.317,0,0,1-.311-.317Zm-12.5,0a.465.465,0,0,1-.145-.343.753.753,0,0,1,.557-.664,1.075,1.075,0,0,0-.056.361.921.921,0,0,0,.305.688.515.515,0,0,1-.305.08H4.442A.466.466,0,0,1,4.12,8.572Zm10.408.1Zm1-.506h0a.484.484,0,1,1,.484.481.484.484,0,0,1-.484-.481ZM4.828,7.82a1.5,1.5,0,0,1,.357-.914,1.171,1.171,0,0,1,.88,1.024.6.6,0,0,1-.572.671.712.712,0,0,1-.665-.781Zm11.8.748ZM2.309,8.378h0v0Zm.273-.586a.662.662,0,0,1,.007-.119.945.945,0,0,0,.8.34,1.712,1.712,0,0,0,.284-.023.851.851,0,0,1-.632.381c-.262,0-.459-.2-.459-.579ZM17.66,8.32a.332.332,0,1,1,.126.025.332.332,0,0,1-.126-.025ZM14.8,7.553a.317.317,0,1,1,.317.317.317.317,0,0,1-.317-.317Zm1.6-.205h0a.506.506,0,1,1,.506.506.506.506,0,0,1-.506-.506Zm4.562-1.464A1.825,1.825,0,0,0,22.6,5.028c.228.08.2.421.2.856,0,.76-.082,1.725-.285,1.743h-.012A2.812,2.812,0,0,1,20.968,5.883ZM2.819,7.445c-.033,0-.072.016-.134.016a.168.168,0,0,1-.15-.15.166.166,0,0,1,.023-.087h0c.111-.183.009-.909.7-1.347a1.6,1.6,0,0,1,.919-.254,1.3,1.3,0,0,1,.175.007.705.705,0,0,1,.289.056c.065.065.025.187.127.325s.223.119.223.269a1.652,1.652,0,0,1-.8,1.11,1.518,1.518,0,0,1-.665.19C3.223,7.579,3.007,7.445,2.819,7.445Zm.325-.856a.655.655,0,0,0,.542.617c.145,0,.289-.08.289-.135,0-.015-.017-.023-.04-.04A.9.9,0,0,1,3.4,6.308c-.007-.056-.023-.08-.055-.08C3.263,6.232,3.144,6.433,3.144,6.589Zm.99-.7c-.116,0-.2.016-.2.166,0,.238.221.657.5.657.126,0,.19-.145.19-.253,0-.056-.148-.145-.2-.223-.088-.122-.088-.278-.165-.316a.189.189,0,0,0-.106-.033Zm.393,1.671h0ZM14.8,7.553Zm.958-.139a.3.3,0,1,1,.116.022.3.3,0,0,1-.116-.022ZM8.668,6.087a1.921,1.921,0,0,1-1.506.77.892.892,0,0,1-.942-.93c0-.135.048-.484.217-.484.2,0,.023.65.411.65.1,0,.269-.08.361-.34A1.49,1.49,0,0,0,7.3,5.285c0-.217-.048-.348-.2-.348a.616.616,0,0,0-.356.158,1.193,1.193,0,0,1,1.156-.863c.625,0,.958.554.958,1.172a1.5,1.5,0,0,1-.025.269,1.351,1.351,0,0,1,1.038-.779c.523,0,.76.452.76.958,0,.221-.063.547-.166.547s-.087-.183-.1-.349c-.017-.217-.056-.261-.127-.261-.135,0-.223.317-.223.609,0,.181.033.388.175.388a.289.289,0,0,0,.2-.087.711.711,0,0,1-.682.682c-.7,0-.96-.812-1.038-1.292Zm.71.532c0,.166.035.238.083.238h.007c.2,0,.419-.76.419-1.236,0-.1-.015-.217-.063-.217-.169,0-.447.788-.447,1.216ZM7.434,6.3c0,.055.017.119.087.119.269,0,.578-1.458.578-1.7,0-.063-.023-.111-.08-.111-.246,0-.587,1.387-.587,1.7ZM8.9,5.966c.017.285.064.412.145.412s.212-.273.212-.55h0c0-.135-.031-.166-.063-.166-.081,0-.168.1-.295.305Zm-.818.012c-.009.095.042.173.093.173.087,0,.2-.095.406-.324A1.987,1.987,0,0,0,8.6,5.51c0-.158-.063-.332-.158-.332-.239,0-.358.634-.358.8Zm-2.9.927ZM14.8,6.79c-.183-.031-.348-.434-.348-.863a1.261,1.261,0,0,1,.209-.717.837.837,0,0,0,.609.285c.087,0,.191-.023.246-.023s.119.031.119.086a.5.5,0,0,1-.175.305.8.8,0,0,0,.3.056.932.932,0,0,0,.966-1,1.057,1.057,0,0,1,.151.506,1.135,1.135,0,0,1-1.219,1.2A1.727,1.727,0,0,1,15.04,6.5c-.145,0-.145.293-.239.293ZM17,6.373h.008a.351.351,0,1,1-.008,0ZM5.229,6.105a.317.317,0,1,1,.317.317.317.317,0,0,1-.317-.317ZM17.1,4.347a.083.083,0,0,1,.05-.08h0a3.535,3.535,0,0,0,1.124-.246.427.427,0,0,1,.2-.056c.277,0,.2.317.46.317.2,0,.452-.166.6-.166.236,0,.578.745.578,1.094,0,.406-.609.65-1.33.65A1.691,1.691,0,0,1,17.1,4.347Zm.808.4c0,.206.382.523.969.523.348,0,.609-.16.609-.254,0-.031-.048-.056-.151-.056a4.276,4.276,0,0,1-.7-.072c-.333-.055-.587-.181-.682-.181C17.925,4.712,17.912,4.727,17.912,4.751ZM4.817,5.395H4.812a.319.319,0,1,1,.319.315h0a.317.317,0,0,1-.314-.315ZM2.54,5.382a.6.6,0,0,1-.174-.434.666.666,0,0,1,.419-.625.739.739,0,0,0-.008.134.922.922,0,0,0,.71.929.951.951,0,0,1-.512.172H2.963a.6.6,0,0,1-.424-.176Zm18.485.168c-.309,0-.523-.1-.518-.318a.3.3,0,0,1,.341-.276c.723,0,1.385-.484,1.385-.92a.345.345,0,0,0-.079-.253.482.482,0,0,1,.452.531,1.557,1.557,0,0,1-1.573,1.236ZM3.487,5.384ZM15.756,5a.127.127,0,0,1-.08-.119.317.317,0,0,1,.173-.25.609.609,0,0,0-.411-.158.637.637,0,0,0-.634.467.723.723,0,0,1-.056-.269.765.765,0,0,1,.812-.777,1.386,1.386,0,0,1,.776.269c.072,0,.158-.08.221-.08.087,0,.087.135.087.231a1.3,1.3,0,0,1-.5,1.061A.8.8,0,0,0,15.756,5ZM5.5,3.784c-.2,0-.467.5-.76.5-.155,0-.2-.122-.2-.305,0-.229.072-.549.072-.752,0-.111-.009-.238-.111-.238-.293,0-1.362.784-1.774.784-.087,0-.15-.04-.15-.127,0-.388,1.354-1.552,1.354-1.821,0-.246-1.552-.025-1.552-.262,0-.272,1.1-.732,1.1-.914S2.413.4,2.413.2c0-.135.253-.19.723-.19.389,0,1.394.1,1.394.333,0,.261-.848.523-.848.776,0,.3,1.189.12,1.189.389S4,2.376,4,2.566c0,.031.04.048.072.048.205,0,.744-.4.99-.4.095,0,.126.063.126.173,0,.223-.132.594-.132.824,0,.056.017.119.079.119.173,0,.452-.752.7-.752.223,0,.025,1.133.254,1.133.2,0,.25-1.029.444-1.029s.3.578.5.578c.087,0,.1-.111.1-.289V2.7c0-.173.008-.289.095-.289.241,0,.911.8,1.054.8.031,0,.04-.033.04-.056,0-.213-.452-.934-.452-1.315,0-.127.048-.213.175-.213.277,0,.863.325,1.132.325.087,0,.145-.033.145-.119,0-.325-.966-.99-.966-1.252S9.422.038,10.158.038c.1,0,.285,0,.285.1,0,.194-.914.368-1.134.6a.145.145,0,0,0-.046.1c.014.372,1.3,1.233,1.3,1.709,0,.1-.088.181-.238.179C9.9,2.728,9,2.3,8.687,2.3c-.087,0-.111.022-.111.1,0,.3.586,1.251.586,1.67,0,.116-.04.2-.15.2-.352,0-1.144-.95-1.422-.95-.253,0-.145.8-.379.8-.19,0-.356-.459-.562-.459s-.341,1.584-.665,1.584C5.6,5.25,5.751,3.784,5.5,3.784ZM4.36,5.21c-.546,0-1.172-.253-1.166-.88a.526.526,0,0,1,.53-.538c.536,0,.71.578.71.958a1.549,1.549,0,0,1-.072.459Zm16.491-.554h.005ZM20.5,4.482c-.072-.145-.048-.372-.183-.476a1.379,1.379,0,0,0,.389.04c.356,0,.7-.245.96-.245a.2.2,0,0,1,.228.221c-.005.348-.707.632-1.041.634a.341.341,0,0,1-.353-.174ZM9.152,2.906h0a.045.045,0,0,1,.04-.047,4.656,4.656,0,0,1,1.373.99.333.333,0,0,1,.047.175c0,.238-.119.515-.277.515A4.325,4.325,0,0,1,9.153,2.906Zm6.709.4c-.1,0-.253.361-.347.361-.04,0-.056-.006-.072-.1-.023-.181-.048-.491-.175-.491-.111,0-.562.516-.713.515-.032,0-.04,0-.04-.04,0-.158.4-.715.4-.878s-.539-.068-.539-.2c0-.166.539-.338.539-.562S14.4,1.654,14.4,1.48c0-.095.484-.231.484-.373s-.491-.682-.491-.88.736.351.927.351c.1,0,.1-.277.1-.361,0-.135.04-.217.079-.217.091,0,.281.313.406.3A5.83,5.83,0,0,1,17.022.043a1.765,1.765,0,0,1,1.929,1.821,1.807,1.807,0,0,1-1.863,1.861,3.084,3.084,0,0,1-1.227-.418Zm.289-.525a.111.111,0,0,0-.03.084c0,.145.361.421.92.421A1.266,1.266,0,0,0,18.27,1.861c0-.9-.467-1.442-1.251-1.442-.489,0-.8.2-.8.379,0,.112.1.127.175.127.156,0,.537-.15.609-.15.055,0,.086.015.086.055,0,.085-.166.277-.166.389,0,.15.871.048.871.2s-.64.285-.64.388.515.444.515.617c0,.033-.015.064-.072.064-.166,0-.484-.087-.7-.087-.048,0-.072.023-.072.056,0,.118.134.356.134.5,0,.048-.023.063-.055.063-.127,0-.506-.269-.682-.269h0a.111.111,0,0,0-.075.033Zm-.962-1.35c0,.1.309.262.309.349,0,.055-.318.275-.326.34,0,.015.016.023.056.023.056,0,.238.008.333.008a.056.056,0,0,1,.056.064l.017.316c0,.04.015.072.038.072.076,0,.217-.325.305-.325.072,0,.317.111.379.111a.022.022,0,0,0,.025-.023c0-.072-.166-.293-.166-.348,0-.072.452-.064.452-.145,0-.063-.445-.158-.445-.221s.2-.277.2-.333c0-.017-.017-.023-.032-.023-.08,0-.284.119-.373.119s-.183-.421-.239-.421c-.077,0-.095.444-.2.444-.12,0-.27-.032-.357-.032C15.2,1.409,15.188,1.417,15.188,1.432Zm3.7,2.024c-.063-.007-.079-.023-.079-.063,0-.1.564-.158.564-.665a3.98,3.98,0,0,0-.064-.46.062.062,0,0,1,.064-.063c.119,0,.356.459.8.459a.377.377,0,0,0,.408-.407c0-.562-1.346-.7-1.346-.832,0-.1.752-.277,1.139-.285-.594-.757-1.44-.678-1.44-.81A2.447,2.447,0,0,1,20.154.093c.49,0,.951.111.951.486,0,.2-.166.421-.166.737a.293.293,0,0,0,.318.325c.246,0,.305-.261.305-.538,0-.229-.04-.406-.04-.515A.527.527,0,0,1,22.073.03c.27,0,.332.115.729.115a.609.609,0,0,0-.289.468,8.638,8.638,0,0,1,.217,1.244c0,1.251-1.173,1.695-2.606,1.695a8.1,8.1,0,0,1-1.234-.093Zm3.03-2c0,.7-.514,1.243-1.442,1.393.1.008.2.008.293.008,1.084,0,1.482-.491,1.482-.9a.506.506,0,0,0-.333-.506Zm.008-1.1a.2.2,0,0,0-.056.145.2.2,0,1,0,.2-.2h0a.2.2,0,0,0-.142.059ZM2.413,2.6a.7.7,0,0,1,.158-.452.886.886,0,0,1,.522-.145c.107,0,.233.02.233.083V2.1a1.518,1.518,0,0,1-.812.688c-.075,0-.1-.1-.1-.182Zm8.146-.05ZM5.945,1.523c-.254,0-.523.406-.682.406-.04,0-.079-.017-.079-.064,0-.156.427-.512.427-.71,0-.1-.1-.126-.217-.126-.2,0-.475.078-.65.078-.08,0-.145-.023-.145-.078,0-.166.8-.246.8-.523,0-.262-.372-.223-.372-.318,0-.072.289-.127.609-.127C6.165.06,6.072.5,6.47.5S6.8.077,7.315.077c.325,0,.562.048.562.1,0,.111-.388.1-.388.346s.7.452.7.642c0,.055-.048.072-.1.072-.134,0-.379-.111-.562-.111a.2.2,0,0,0-.223.2c0,.217.238.562.238.728a.09.09,0,0,1-.087.1c-.19,0-.395-.609-.673-.609-.34,0-.246.88-.475.88S6.365,1.523,5.945,1.523ZM9.739.984v0c0-.1.333-.166.6-.163.2,0,.305.008.305.244,0,.191-.04.373-.173.373-.231,0-.73-.309-.73-.45Z" transform="translate(0)"/></svg>